# xmcd
#
# Track frame offsets:
#	150
#	19795
#	37160
#	53504
#	66489
#	80609
#	94066
#	111818
#	124721
#	137159
#	155879
#	172042
#	187184
#	201592
#	215928
#	231268
#	247684
#	261288
#	273685
#	286970
#	301365
#	314455
#	324426
#
# Disc length: 4536 seconds
#
# Revision: 1
# Processed by: cddbd v1.5.2PL0 Copyright (c) Steve Scherf et al.
# Submitted via: audiograbber 1.83.01
#
DISCID=6b11b617
DTITLE=Various Artist - Karaoke Superhits/Country Box Set
DYEAR=2011
DGENRE=Country
TTITLE0=Peaceful Easy Feeling/The Eagles
TTITLE1=Reneck Woman/Gretchen Wilson
TTITLE2=Rhinstone Cowboy/Glen Campbell
TTITLE3=Ring Of Fire/Johnny Cash
TTITLE4=Rose Garden/Lynn Anderson
TTITLE5=Ruby, Don't Take Your Love To Town/Kenny Rogers
TTITLE6=Sing Me An Old Fashioned Song/Billie Jo Spears
TTITLE7=Stand By Your Man/Tammy Wynette
TTITLE8=Sweet Dreams/Patsy Cline
TTITLE9=Sylvia's Mother/Dr.Hook
TTITLE10=Take Me Home, Country Roads/Olivia Newton-John
TTITLE11=Take Me Home, Country Roads/John Denver
TTITLE12=Talking In Your Sleep/Crystal Gayle
TTITLE13=The Black Hills Of Dakota/Doris Day
TTITLE14=The Deadwood Stage/Doris Day
TTITLE15=The Gambler/Kenny Rogers
TTITLE16=The Most Beautiful Girl/Charlie Rich
TTITLE17=Walkin' After Midnight/Patsy Cline
TTITLE18=What I've Got In Mind/Billie Jo Spears
TTITLE19=Wichita Lineman/Glen Campbell
TTITLE20=Your Cheatin' Heart/Hank Williams
TTITLE21=Your Good Girl's Gonna Go Bad/Tammy Wynette
TTITLE22=Your Still The One/Shania Twain
EXTD=
EXTT0=
EXTT1=
EXTT2=
EXTT3=
EXTT4=
EXTT5=
EXTT6=
EXTT7=
EXTT8=
EXTT9=
EXTT10=
EXTT11=
EXTT12=
EXTT13=
EXTT14=
EXTT15=
EXTT16=
EXTT17=
EXTT18=
EXTT19=
EXTT20=
EXTT21=
EXTT22=
PLAYORDER=
